<svg width="33" height="33" viewBox="0 0 33 33" fill="none" xmlns="http://www.w3.org/2000/svg">
<path d="M16.5 30.25C16.8355 30.25 17.1476 30.0946 17.7732 29.7825L22.792 27.2841C25.0154 26.18 26.125 25.6259 26.125 24.75V13.75M16.5 30.25C16.1645 30.25 15.8524 30.0946 15.2268 29.7825L10.208 27.2841C7.98462 26.18 6.875 25.6259 6.875 24.75V13.75M16.5 30.25V19.25M26.125 13.75C26.125 12.8741 25.014 12.3214 22.7934 11.2159L17.7732 8.71613C17.1462 8.40538 16.8355 8.25 16.5 8.25C16.1645 8.25 15.8524 8.40538 15.2268 8.7175L10.208 11.2159C7.98462 12.32 6.875 12.8741 6.875 13.75M26.125 13.75C26.125 14.6259 25.014 15.1786 22.7934 16.2841L17.7732 18.7839C17.1476 19.0946 16.8355 19.25 16.5 19.25M6.875 13.75C6.875 14.6259 7.986 15.1786 10.2066 16.2841L15.2268 18.7839C15.8524 19.0946 16.1645 19.25 16.5 19.25" stroke="#62748E" stroke-width="1.5" stroke-linejoin="round"/>
<path d="M30.25 28.875L26.125 25.4375M16.5 2.75V8.25M2.75 28.875L6.875 25.4375" stroke="#62748E" stroke-width="1.5" stroke-linecap="round" stroke-linejoin="round"/>
</svg>
