<svg preserveAspectRatio="xMidYMid meet" width="100%" height="100%" overflow="visible" style="display: block;" viewBox="0 0 33.1667 26.8333" fill="none" xmlns="http://www.w3.org/2000/svg">
<g id="Group">
<path id="Vector" d="M17.9798 13.4167C19.8323 13.4167 21.3333 14.8337 21.3333 16.5833C21.3333 18.3329 19.8323 19.75 17.9798 19.75H14.3667C13.1728 19.75 12.5759 19.75 12.2038 19.3795C11.8333 19.0058 11.8333 18.4105 11.8333 17.2167V13.4167M17.9798 13.4167C19.8323 13.4167 21.3333 11.9996 21.3333 10.25C21.3333 8.50042 19.8323 7.08333 17.9798 7.08333H14.3667C13.1728 7.08333 12.5759 7.08333 12.2038 7.45383C11.8333 7.8275 11.8333 8.42283 11.8333 9.61667V13.4167M17.9798 13.4167H11.8333" stroke="var(--stroke-0, #62748E)" stroke-width="1.5" stroke-linecap="round" stroke-linejoin="round"/>
<path id="Vector_2" d="M32.4167 13.4167C31.5768 13.4167 30.7714 13.083 30.1775 12.4892C29.5836 11.8953 29.25 11.0899 29.25 10.25V7.08333C29.25 1.8425 28.1575 0.75 22.9167 0.75H10.25C5.00917 0.75 3.91667 1.8425 3.91667 7.08333V10.25C3.91667 11.0899 3.58304 11.8953 2.98917 12.4892C2.39531 13.083 1.58985 13.4167 0.75 13.4167M0.75 13.4167C1.58985 13.4167 2.39531 13.7503 2.98917 14.3442C3.58304 14.938 3.91667 15.7435 3.91667 16.5833V19.75C3.91667 24.9908 5.00917 26.0833 10.25 26.0833H22.9167C28.1575 26.0833 29.25 24.9908 29.25 19.75V16.5833C29.25 15.7435 29.5836 14.938 30.1775 14.3442C30.7714 13.7503 31.5768 13.4167 32.4167 13.4167" stroke="var(--stroke-0, #62748E)" stroke-width="1.5" stroke-linecap="round" stroke-linejoin="round"/>
</g>
</svg>
