<svg width="41" height="33" viewBox="0 0 41 33" fill="none" xmlns="http://www.w3.org/2000/svg">
<g clip-path="url(#clip0_268_284)">
<path d="M22.2266 16.5003C24.5166 16.5003 26.3721 18.2429 26.3721 20.3946C26.3721 22.5463 24.5166 24.2891 22.2266 24.2891H17.7602C16.2843 24.2891 15.5464 24.2891 15.0864 23.8334C14.6284 23.3739 14.6284 22.6418 14.6284 21.1736V16.5003M22.2266 16.5003C24.5166 16.5003 26.3721 14.7575 26.3721 12.6058C26.3721 10.4542 24.5166 8.71143 22.2266 8.71143H17.7602C16.2843 8.71143 15.5464 8.71143 15.0864 9.16707C14.6284 9.62662 14.6284 10.3588 14.6284 11.827V16.5003M22.2266 16.5003H14.6284" stroke="#62748E" stroke-width="1.5" stroke-linecap="round" stroke-linejoin="round"/>
<path d="M40.073 16.5001C39.0347 16.5001 38.0391 16.0897 37.3049 15.3594C36.5708 14.629 36.1584 13.6385 36.1584 12.6056V8.71119C36.1584 2.26594 34.8078 0.922363 28.3293 0.922363H12.671C6.19235 0.922363 4.84182 2.26594 4.84182 8.71119V12.6056C4.84182 13.6385 4.42939 14.629 3.69526 15.3594C2.96115 16.0897 1.96545 16.5001 0.927246 16.5001M0.927246 16.5001C1.96545 16.5001 2.96115 16.9103 3.69526 17.6407C4.42939 18.371 4.84182 19.3616 4.84182 20.3944V24.2889C4.84182 30.7341 6.19235 32.0776 12.671 32.0776H28.3293C34.8078 32.0776 36.1584 30.7341 36.1584 24.2889V20.3944C36.1584 19.3616 36.5708 18.371 37.3049 17.6407C38.0391 16.9103 39.0347 16.5001 40.073 16.5001" stroke="#62748E" stroke-width="1.5" stroke-linecap="round" stroke-linejoin="round"/>
</g>
<defs>
<clipPath id="clip0_268_284">
<rect width="41" height="33" fill="white"/>
</clipPath>
</defs>
</svg>
