<svg preserveAspectRatio="xMidYMid meet" width="100%" height="100%" overflow="visible" style="display: block;" viewBox="0 0 28.4167 31.5816" fill="none" xmlns="http://www.w3.org/2000/svg">
<g id="Group">
<path id="Vector" d="M26.0833 0.75H2.33333C1.91341 0.75 1.51068 0.916815 1.21375 1.21375C0.916815 1.51068 0.75 1.91341 0.75 2.33333L3.69183 25.127C3.76062 25.6615 3.96467 26.1696 4.28469 26.6032C4.60471 27.0369 5.0301 27.3816 5.52058 27.6049L11.8492 30.4803C12.3248 30.6952 12.8383 30.814 13.36 30.8298C13.8817 30.8456 14.4014 30.758 14.8892 30.5721L22.7377 27.5527C23.2706 27.3479 23.7382 27.0029 24.0911 26.5541C24.4439 26.1054 24.6689 25.5696 24.7423 25.0035L27.6667 2.33333C27.6667 1.91341 27.4999 1.51068 27.2029 1.21375C26.906 0.916815 26.5033 0.75 26.0833 0.75Z" stroke="var(--stroke-0, #62748E)" stroke-width="1.5" stroke-linecap="round" stroke-linejoin="round"/>
<path id="Vector_2" d="M6.6875 7.08333H20.9375L7.47917 14.2083H20.1458L19.3542 22.125L13.8125 23.7083L8.27083 22.125L7.95417 18.9583" stroke="var(--stroke-0, #62748E)" stroke-width="1.5" stroke-linecap="round" stroke-linejoin="round"/>
</g>
</svg>
