<svg preserveAspectRatio="xMidYMid meet" width="100%" height="100%" overflow="visible" style="display: block;" viewBox="0 0 22.6114 33.1651" fill="none" xmlns="http://www.w3.org/2000/svg">
<g id="Group">
<path id="Vector" d="M6.02804 11.3061C4.62822 11.3061 3.28573 10.75 2.2959 9.76018C1.30608 8.77036 0.75 7.42787 0.75 6.02804C0.75 4.62822 1.30608 3.28573 2.2959 2.2959C3.28573 1.30608 4.62822 0.75 6.02804 0.75H11.3053V11.3061M6.02804 11.3061H11.3053M6.02804 11.3061C4.62843 11.3061 3.28614 11.8621 2.29646 12.8518C1.30679 13.8414 0.750792 15.1837 0.750792 16.5833C0.750792 17.9829 1.30679 19.3252 2.29646 20.3149C3.28614 21.3046 4.62843 21.8606 6.02804 21.8606H11.3053V11.3061" stroke="var(--stroke-0, #62748E)" stroke-width="1.5"/>
<path id="Vector_2" d="M21.8614 16.5833C21.8614 17.9832 21.3053 19.3256 20.3155 20.3155C19.3256 21.3053 17.9832 21.8614 16.5833 21.8614C15.1835 21.8614 13.841 21.3053 12.8512 20.3155C11.8614 19.3256 11.3053 17.9832 11.3053 16.5833C11.3053 15.1835 11.8614 13.841 12.8512 12.8512C13.841 11.8614 15.1835 11.3053 16.5833 11.3053C17.9832 11.3053 19.3256 11.8614 20.3155 12.8512C21.3053 13.841 21.8614 15.1835 21.8614 16.5833ZM6.02804 21.8622H11.3053V27.1394C11.305 28.1831 10.9952 29.2032 10.4151 30.0709C9.83508 30.9385 9.01078 31.6147 8.04646 32.0138C7.08214 32.413 6.02111 32.5173 4.99753 32.3135C3.97395 32.1097 3.03378 31.607 2.2959 30.8689C1.55803 30.1308 1.05557 29.1904 0.852078 28.1668C0.648582 27.1431 0.753181 26.0822 1.15265 25.118C1.55212 24.1538 2.22852 23.3297 3.09632 22.7499C3.96413 22.1701 4.98437 21.8622 6.02804 21.8622Z" stroke="var(--stroke-0, #62748E)" stroke-width="1.5"/>
<path id="Vector_3" d="M11.3053 0.75H16.5825C17.9824 0.75 19.3249 1.30608 20.3147 2.2959C21.3045 3.28573 21.8606 4.62822 21.8606 6.02804C21.8606 7.42786 21.3045 8.77036 20.3147 9.76018C19.3249 10.75 17.9824 11.3061 16.5825 11.3061H11.3053V0.75Z" stroke="var(--stroke-0, #62748E)" stroke-width="1.5"/>
</g>
</svg>
