<svg preserveAspectRatio="xMidYMid meet" width="100%" height="100%" overflow="visible" style="display: block;" viewBox="0 0 33.1877 33.2091" fill="none" xmlns="http://www.w3.org/2000/svg">
<g id="Group">
<path id="Vector" d="M23.5002 32.4591V27.9149C23.5611 27.1599 23.4564 26.4009 23.1931 25.6884C22.9297 24.9759 22.5137 24.3262 21.9727 23.7824C27.0752 23.2283 32.4377 21.3441 32.4377 12.6991C32.4372 10.4885 31.5645 8.36265 30.0002 6.76159C30.7409 4.82756 30.6885 2.68981 29.8539 0.792423C29.8539 0.792423 27.9364 0.238256 23.5002 3.13576C19.7755 2.15374 15.8499 2.15374 12.1252 3.13576C7.68891 0.238256 5.77141 0.792423 5.77141 0.792423C4.93677 2.68981 4.88439 4.82756 5.62516 6.76159C4.04911 8.37453 3.17551 10.5196 3.18766 12.7466C3.18766 21.3283 8.55016 23.2124 13.6527 23.8299C13.118 24.3682 12.7057 25.0101 12.4425 25.714C12.1794 26.4178 12.0712 27.1677 12.1252 27.9149V32.4591" stroke="var(--stroke-0, #62748E)" stroke-width="1.5" stroke-linecap="round" stroke-linejoin="round"/>
<path id="Vector_2" d="M12.1252 29.2924C7.25016 30.833 3.18766 29.2924 0.750158 24.5424" stroke="var(--stroke-0, #62748E)" stroke-width="1.5" stroke-linecap="round" stroke-linejoin="round"/>
</g>
</svg>
