<svg width="32" height="31" viewBox="0 0 32 31" fill="none" xmlns="http://www.w3.org/2000/svg">
<path d="M15.6425 0C7.00451 0 0 6.96437 0 15.5556C0 22.4286 4.48205 28.2595 10.6973 30.3164C11.4791 30.4604 11.7661 29.9789 11.7661 29.5681C11.7661 29.1972 11.7515 27.9717 11.7449 26.6719C7.39304 27.6129 6.47477 24.8365 6.47477 24.8365C5.76321 23.0385 4.73796 22.5605 4.73796 22.5605C3.31878 21.595 4.84494 21.6147 4.84494 21.6147C6.41576 21.7245 7.24288 23.2178 7.24288 23.2178C8.63801 25.596 10.9022 24.9084 11.7949 24.511C11.9352 23.5055 12.3407 22.8194 12.788 22.4309C9.31362 22.0375 5.66114 20.7037 5.66114 14.7432C5.66114 13.045 6.27222 11.6572 7.27293 10.5679C7.1105 10.176 6.57512 8.59393 7.42445 6.45124C7.42445 6.45124 8.738 6.03315 11.7273 8.04578C12.9749 7.70101 14.3131 7.52826 15.6425 7.5224C16.9719 7.52826 18.3111 7.70101 19.5612 8.04578C22.5469 6.03315 23.8586 6.45124 23.8586 6.45124C24.71 8.59393 24.1744 10.176 24.012 10.5679C25.0149 11.6572 25.6218 13.0449 25.6218 14.7432C25.6218 20.7178 21.9625 22.0335 18.4793 22.4185C19.0403 22.9012 19.5402 23.848 19.5402 25.2991C19.5402 27.3805 19.5221 29.0557 19.5221 29.5681C19.5221 29.982 19.8036 30.4671 20.5966 30.3143C26.8085 28.2551 31.2849 22.4263 31.2849 15.5556C31.2849 6.96437 24.2814 0 15.6425 0Z" fill="#161614"/>
<path d="M5.85863 22.1594C5.82428 22.2366 5.70184 22.2598 5.59057 22.2068C5.47709 22.1561 5.4133 22.0506 5.4501 21.9731C5.48384 21.8935 5.60627 21.8713 5.71951 21.9247C5.83324 21.9754 5.89801 22.0818 5.85863 22.1594V22.1594ZM6.62809 22.8421C6.5535 22.9109 6.40763 22.8789 6.30863 22.7702C6.20631 22.6617 6.18717 22.5168 6.26287 22.4469C6.33979 22.3782 6.48124 22.4103 6.5838 22.5189C6.68612 22.6286 6.706 22.7726 6.62797 22.8422L6.62809 22.8421ZM7.15599 23.7156C7.06006 23.7818 6.90327 23.7197 6.80647 23.5814C6.71066 23.4432 6.71066 23.2772 6.80856 23.2107C6.90572 23.1443 7.06005 23.204 7.1582 23.3413C7.25389 23.482 7.25389 23.6479 7.15587 23.7157L7.15599 23.7156ZM8.04863 24.7273C7.96287 24.8213 7.78032 24.7961 7.6466 24.6678C7.50993 24.5424 7.47178 24.3644 7.55778 24.2703C7.64451 24.1761 7.82817 24.2026 7.96287 24.3299C8.09868 24.455 8.14015 24.6344 8.04875 24.7273H8.04863ZM9.20233 25.0689C9.16466 25.1907 8.98874 25.2461 8.81158 25.1943C8.63468 25.141 8.51887 24.9983 8.55457 24.8752C8.59137 24.7526 8.76803 24.6949 8.94653 24.7503C9.1232 24.8033 9.23925 24.945 9.20245 25.0689H9.20233ZM10.5155 25.2137C10.5199 25.3421 10.3696 25.4485 10.1837 25.4508C9.99657 25.4548 9.8453 25.351 9.84334 25.2248C9.84334 25.0953 9.99019 24.9899 10.1772 24.9868C10.3631 24.9832 10.5155 25.0863 10.5155 25.2137V25.2137ZM11.8054 25.1646C11.8277 25.2898 11.6984 25.4183 11.5138 25.4525C11.3322 25.4854 11.1641 25.4082 11.1409 25.2841C11.1184 25.1558 11.2501 25.0273 11.4313 24.994C11.6163 24.9621 11.7818 25.0373 11.8054 25.1646" fill="#161614"/>
</svg>
