<svg preserveAspectRatio="xMidYMid meet" width="100%" height="100%" overflow="visible" style="display: block;" viewBox="0 0 36.9667 36.9667" fill="none" xmlns="http://www.w3.org/2000/svg">
<path id="Vector" d="M31.15 19.75V19.3269C31.15 17.4624 29.6376 15.95 27.7731 15.95H24.8167C23.8088 15.95 22.8423 16.3504 22.1297 17.063C21.417 17.7756 21.0167 18.7422 21.0167 19.75C21.0167 20.7578 21.417 21.7244 22.1297 22.437C22.8423 23.1496 23.8088 23.55 24.8167 23.55H27.35C28.3578 23.55 29.3244 23.9504 30.037 24.663C30.7496 25.3756 31.15 26.3422 31.15 27.35C31.15 28.3578 30.7496 29.3244 30.037 30.037C29.3244 30.7496 28.3578 31.15 27.35 31.15H24.8167C23.8088 31.15 22.8423 30.7496 22.1297 30.037C21.417 29.3244 21.0167 28.3578 21.0167 27.35M15.95 14.6833V27.35C15.95 28.3578 15.5496 29.3244 14.837 30.037C14.1244 30.7496 13.1578 31.15 12.15 31.15C11.1422 31.15 10.1756 30.7496 9.46299 30.037C8.75036 29.3244 8.35 28.3578 8.35 27.35M0.75 0.75H36.2167V36.2167H0.75V0.75Z" stroke="var(--stroke-0, #62748E)" stroke-width="1.5"/>
</svg>
