<svg preserveAspectRatio="xMidYMid meet" width="100%" height="100%" overflow="visible" style="display: block;" viewBox="0 0 38.001 20.0015" fill="none" xmlns="http://www.w3.org/2000/svg">
<path id="Vector" d="M34.0016 0C33.1148 0.00070642 32.2532 0.295676 31.5521 0.838668C30.8509 1.38166 30.3498 2.14197 30.1272 3.00042H25.5403C24.5936 3.00023 23.6775 3.33586 22.9551 3.94759C22.2326 4.55932 21.7505 5.4075 21.5946 6.34125L21.4315 7.32925C21.3545 7.79654 21.1137 8.22117 20.7522 8.52721C20.3908 8.83324 19.9323 9.00071 19.4587 8.99967H17.8738C17.6517 8.14117 17.1508 7.38076 16.4496 6.83788C15.7485 6.29501 14.8869 6.00043 14.0001 6.00043C13.1134 6.00043 12.2518 6.29501 11.5506 6.83788C10.8495 7.38076 10.3485 8.14117 10.1265 8.99967H7.87501C7.63147 8.05681 7.05242 7.23514 6.24641 6.68866C5.4404 6.14218 4.46276 5.90841 3.49673 6.03117C2.53069 6.15392 1.64259 6.62477 0.998864 7.35546C0.355143 8.08616 0 9.02653 0 10.0003C0 10.9741 0.355143 11.9145 0.998864 12.6452C1.64259 13.3759 2.53069 13.8467 3.49673 13.9695C4.46276 14.0923 5.4404 13.8585 6.24641 13.312C7.05242 12.7655 7.63147 11.9439 7.87501 11.001H10.1265C10.348 11.8602 10.8488 12.6214 11.5502 13.1649C12.2515 13.7084 13.1136 14.0033 14.0009 14.0033C14.8882 14.0033 15.7503 13.7084 16.4517 13.1649C17.153 12.6214 17.6539 11.8602 17.8753 11.001H19.4587C19.9325 10.9996 20.3915 11.1669 20.7532 11.4729C21.115 11.779 21.356 12.2039 21.4331 12.6714L21.5962 13.6578C21.7517 14.5919 22.2337 15.4404 22.9562 16.0525C23.6787 16.6645 24.5949 17.0004 25.5418 17.0002H26.1277C26.3711 17.9432 26.95 18.7651 27.756 19.3117C28.562 19.8583 29.5396 20.0923 30.5058 19.9696C31.4719 19.8469 32.3601 19.3761 33.0039 18.6454C33.6477 17.9147 34.0029 16.9742 34.0029 16.0004C34.0029 15.0265 33.6477 14.0861 33.0039 13.3553C32.3601 12.6246 31.4719 12.1538 30.5058 12.0312C29.5396 11.9085 28.562 12.1424 27.756 12.689C26.95 13.2357 26.3711 14.0575 26.1277 15.0005H25.5418C25.068 15.0015 24.6093 14.8338 24.2478 14.5274C23.8864 14.2211 23.6457 13.7961 23.569 13.3285L23.4059 12.3421C23.255 11.4348 22.7952 10.6076 22.1044 10.0003C22.7943 9.3922 23.253 8.5644 23.4028 7.657L23.5674 6.67217C23.6441 6.20459 23.8848 5.77958 24.2463 5.47323C24.6077 5.16687 25.0664 4.99918 25.5403 5.00017H30.1256C30.3125 5.72485 30.6988 6.38259 31.2408 6.89867C31.7828 7.41475 32.4587 7.76848 33.1916 7.91967C33.9246 8.07086 34.6852 8.01345 35.3872 7.75397C36.0892 7.49449 36.7043 7.04333 37.1627 6.45175C37.6211 5.86018 37.9043 5.1519 37.9803 4.40738C38.0563 3.66286 37.922 2.91195 37.5926 2.23996C37.2632 1.56797 36.7519 1.00184 36.1168 0.605883C35.4818 0.209925 34.7484 1.45841e-05 34 0M34 1.99975C34.5304 1.99975 35.039 2.21044 35.4141 2.58546C35.7891 2.96049 35.9998 3.46913 35.9998 3.9995C36 4.26224 35.9484 4.52245 35.848 4.76526C35.7476 5.00806 35.6003 5.2287 35.4146 5.41456C35.2289 5.60042 35.0084 5.74787 34.7657 5.84846C34.5229 5.94906 34.2628 6.00083 34 6.00083C33.7373 6.00083 33.4771 5.94906 33.2344 5.84846C32.9917 5.74787 32.7711 5.60042 32.5854 5.41456C32.3997 5.2287 32.2524 5.00806 32.152 4.76526C32.0516 4.52245 32.0001 4.26224 32.0003 3.9995C32.0003 3.73676 32.052 3.47659 32.1526 3.23386C32.2532 2.99114 32.4007 2.77062 32.5865 2.5849C32.7724 2.39919 32.993 2.25192 33.2358 2.15152C33.4786 2.05111 33.7389 1.99954 34.0016 1.99975M4.0006 8.00058C4.26334 8.00038 4.52355 8.05195 4.76635 8.15235C5.00916 8.25275 5.2298 8.40002 5.41566 8.58574C5.60152 8.77145 5.74896 8.99197 5.84956 9.2347C5.95015 9.47742 6.00193 9.73759 6.00193 10.0003C6.00193 10.2631 5.95015 10.5232 5.84956 10.766C5.74896 11.0087 5.60152 11.2292 5.41566 11.4149C5.2298 11.6006 5.00916 11.7479 4.76635 11.8483C4.52355 11.9487 4.26334 12.0003 4.0006 12.0001C3.47023 12.0001 2.96159 11.7894 2.58656 11.4144C2.21153 11.0393 2.00085 10.5307 2.00085 10.0003C2.00085 9.46997 2.21153 8.96132 2.58656 8.5863C2.96159 8.21127 3.47023 8.00058 4.0006 8.00058ZM14.0009 8.00058C14.2635 8.00058 14.5236 8.05231 14.7662 8.15281C15.0088 8.2533 15.2293 8.4006 15.415 8.5863C15.6007 8.77199 15.748 8.99244 15.8485 9.23506C15.949 9.47768 16.0007 9.73772 16.0007 10.0003C16.0007 10.5307 15.79 11.0393 15.415 11.4144C15.0399 11.7894 14.5313 12.0001 14.0009 12.0001C13.4708 11.9997 12.9626 11.7888 12.5879 11.4138C12.2132 11.0388 12.0028 10.5304 12.0028 10.0003C12.0028 9.46997 12.2135 8.96132 12.5885 8.5863C12.9635 8.21127 13.4721 8.00058 14.0025 8.00058M30.0037 14.0014C30.534 14.0014 31.0427 14.2121 31.4177 14.5871C31.7927 14.9622 32.0034 15.4708 32.0034 16.0012C32.0034 16.5315 31.7927 17.0402 31.4177 17.4152C31.0427 17.7902 30.534 18.0009 30.0037 18.0009C29.7409 18.0011 29.4807 17.9496 29.2379 17.8492C28.9951 17.7487 28.7745 17.6015 28.5886 17.4158C28.4028 17.23 28.2553 17.0095 28.1547 16.7668C28.0541 16.5241 28.0023 16.2639 28.0023 16.0012C28.0021 15.7384 28.0537 15.4782 28.1541 15.2354C28.2545 14.9926 28.4018 14.772 28.5875 14.5861C28.7732 14.4002 28.9937 14.2528 29.2365 14.1522C29.4792 14.0516 29.7394 13.9998 30.0021 13.9998" fill="var(--fill-0, #62748E)"/>
</svg>
