<svg preserveAspectRatio="xMidYMid meet" width="100%" height="100%" overflow="visible" style="display: block;" viewBox="0 0 33.1668 20.5" fill="none" xmlns="http://www.w3.org/2000/svg">
<path id="Vector" d="M16.5834 0.75C10.8834 0.75 8.93113 4.97275 8.66671 7.08333C8.66671 7.08333 9.96346 4.569 13.1998 4.569C17.1581 4.569 17.4811 10.25 24.6061 10.25C30.3774 10.25 32.1523 6.31858 32.4167 4.35367C32.4167 4.35367 31.1817 6.57508 28.015 6.57508C24.0725 6.57508 23.5706 0.75 16.5834 0.75ZM8.66671 10.25C2.96671 10.25 1.01446 14.4728 0.750046 16.5833C0.750046 16.5833 2.0468 14.069 5.28313 14.069C9.24146 14.069 9.56446 19.75 16.6895 19.75C22.4607 19.75 24.2356 15.8186 24.5 13.8521C24.5 13.8521 23.265 16.0751 20.0984 16.0751C16.1559 16.0751 15.654 10.25 8.66671 10.25Z" stroke="var(--stroke-0, #62748E)" stroke-width="1.5" stroke-linejoin="round"/>
</svg>
