<svg preserveAspectRatio="xMidYMid meet" width="100%" height="100%" overflow="visible" style="display: block;" viewBox="0 0 34.834 30.1265" fill="none" xmlns="http://www.w3.org/2000/svg">
<path id="Vector" d="M34.7291 0.448083C34.6597 0.32721 34.5596 0.226807 34.4389 0.157024C34.3182 0.0872406 34.1813 0.0505521 34.0419 0.0506668L26.1411 0.0459167L26.13 0.0427499L19.7967 0.00158322H19.7919C19.6545 0.00160718 19.5195 0.0373851 19.4001 0.105399C19.2808 0.173413 19.1811 0.271322 19.1111 0.3895L17.4137 3.24742L15.7196 0.429083C15.6503 0.312801 15.5523 0.216228 15.4351 0.148592C15.3178 0.0809555 15.1852 0.0445145 15.0498 0.0427499L8.71648 0H8.70857C8.65391 0.00862262 8.60032 0.0229508 8.54865 0.0427499H0.791901C0.652604 0.0427086 0.515763 0.079422 0.395193 0.149183C0.274624 0.218944 0.174595 0.319283 0.105208 0.440068C0.035821 0.560853 -0.000468306 0.697808 4.56282e-06 0.837104C0.000477432 0.9764 0.0376956 1.11311 0.107901 1.23342L16.7329 29.7334C16.8026 29.853 16.9024 29.9523 17.0225 30.0212C17.1425 30.0902 17.2785 30.1265 17.4169 30.1265C17.5553 30.1265 17.6913 30.0902 17.8113 30.0212C17.9314 29.9523 18.0312 29.853 18.1009 29.7334L34.7259 1.24133C34.7962 1.12108 34.8334 0.98441 34.834 0.845133C34.8346 0.705857 34.7984 0.568898 34.7291 0.448083ZM14.5922 1.62292L16.7377 5.19967C16.808 5.31703 16.9075 5.41416 17.0266 5.48159C17.1456 5.54902 17.2801 5.58445 17.4169 5.58442H17.4185C17.5556 5.58412 17.6903 5.54821 17.8094 5.48021C17.9284 5.41221 18.0278 5.31445 18.0977 5.1965L20.24 1.5865L24.7208 1.61817L19.9613 9.40342L17.4169 13.5644L10.1241 1.59283L14.5922 1.62292ZM17.4169 27.7638L2.1694 1.62608H8.26523L16.7408 15.4961C16.8021 15.5863 16.8813 15.6628 16.9736 15.7209C16.9957 15.7368 17.0068 15.7621 17.029 15.7747C17.2077 15.8754 17.4185 15.9027 17.6169 15.851C17.8154 15.7994 17.9861 15.6727 18.093 15.4977L26.5686 1.62925L32.6644 1.63242L17.4169 27.7638Z" fill="var(--fill-0, #62748E)"/>
</svg>
