<svg width="32" height="32" viewBox="0 0 32 32" fill="none" xmlns="http://www.w3.org/2000/svg">
<path d="M2.21116 15.5552C2.21116 20.8375 5.2808 25.4019 9.73203 27.5653L3.36649 10.1243C2.60341 11.8331 2.20971 13.6837 2.21116 15.5552V15.5552ZM24.5643 14.8818C24.5643 13.2325 23.9719 12.0904 23.4638 11.2014C22.7873 10.1022 22.1536 9.17134 22.1536 8.07212C22.1536 6.84542 23.0837 5.70354 24.3942 5.70354C24.4533 5.70354 24.5094 5.71091 24.5673 5.71421C22.1929 3.53912 19.0298 2.21112 15.5557 2.21112C10.8937 2.21112 6.79213 4.60305 4.40604 8.22599C4.71913 8.23539 5.01444 8.24173 5.2648 8.24173C6.6606 8.24173 8.82121 8.07237 8.82121 8.07237C9.54057 8.02996 9.62538 9.08653 8.90704 9.17159C8.90704 9.17159 8.18387 9.25665 7.37945 9.2988L12.239 23.7532L15.1596 14.9948L13.0802 9.29855C12.3616 9.2564 11.6809 9.17134 11.6809 9.17134C10.9618 9.12919 11.0461 8.02971 11.7652 8.07212C11.7652 8.07212 13.9689 8.24148 15.2802 8.24148C16.6757 8.24148 18.8366 8.07212 18.8366 8.07212C19.5565 8.02971 19.641 9.08627 18.9222 9.17134C18.9222 9.17134 18.1977 9.2564 17.3948 9.29855L22.2173 23.6435L23.5481 19.1956C24.1253 17.3499 24.5643 16.0241 24.5643 14.8818V14.8818Z" fill="#00749A"/>
<path d="M15.7898 16.7225L11.786 28.3566C13.0101 28.7173 14.2796 28.9005 15.5557 28.9005C17.1097 28.9005 18.5999 28.6316 19.9871 28.144C19.9499 28.0858 19.9181 28.0243 19.8921 27.9602L15.7898 16.7225ZM27.265 9.15283C27.3224 9.57789 27.3549 10.0344 27.3549 10.525C27.3549 11.8792 27.102 13.4014 26.3402 15.3048L22.264 27.09C26.2313 24.7765 28.8997 20.4784 28.8997 15.5552C28.9033 13.3174 28.341 11.115 27.265 9.15283V9.15283Z" fill="#00749A"/>
<path d="M15.5557 0C6.97851 0 0 6.97799 0 15.5552C0 24.1334 6.97826 31.1114 15.5557 31.1114C24.1326 31.1114 31.1122 24.1336 31.1122 15.5552C31.1119 6.97799 24.1326 0 15.5557 0ZM15.5557 30.3981C7.37183 30.3981 0.713264 23.7395 0.713264 15.5552C0.713264 7.37156 7.37158 0.713516 15.5557 0.713516C23.7393 0.713516 30.3974 7.37156 30.3974 15.5552C30.3974 23.7395 23.7391 30.3981 15.5557 30.3981Z" fill="#00749A"/>
</svg>
