<svg width="32" height="31" viewBox="0 0 32 31" fill="none" xmlns="http://www.w3.org/2000/svg">
<path d="M1.30356 1.29633H29.9814V29.037H1.30356V1.29633Z" fill="#2E001E"/>
<path d="M0 0V30.3333H31.2849V0H0ZM1.30354 1.2963H29.9814V29.037H1.30354V1.2963Z" fill="#FF2BC2"/>
<path d="M22.7207 12.7426C22.5251 12.6519 22.2775 12.613 21.9646 12.613C20.3222 12.613 19.2272 13.8704 19.2272 15.9574C19.2272 18.3426 20.3482 19.3018 21.8082 19.3018C22.121 19.3018 22.46 19.2629 22.7076 19.1592V12.7426H22.7207ZM16.8808 16.0611C16.8808 13.0407 18.8361 10.6815 22.0428 10.6815C22.3166 10.6815 22.46 10.6815 22.7207 10.7074V7.33705C22.7207 7.25927 22.7858 7.20742 22.851 7.20742H24.9497C25.054 7.20742 25.0801 7.24631 25.0801 7.31112V19.1592C25.0801 19.5092 25.0801 19.95 25.1452 20.4296C25.1452 20.5204 25.1452 20.5333 25.067 20.5722C23.9721 21.0907 22.8249 21.3241 21.73 21.3241C18.9013 21.3241 16.8808 19.587 16.8808 16.0611V16.0611ZM12.4357 13.9611L16.0857 21C16.1508 21.1037 16.1117 21.2074 16.0074 21.2074H13.7393C13.5959 21.2074 13.5307 21.1685 13.4655 21.0389C12.6313 19.3278 11.784 17.5518 10.9106 15.7111H10.8845C10.1024 17.4481 9.24208 19.3407 8.40782 21.0518C8.34264 21.1555 8.27746 21.1944 8.17318 21.1944H6.00931C5.87895 21.1944 5.86592 21.0907 5.9311 21.0129L9.50279 14.1815L6.04842 7.3889C5.9702 7.2852 6.04841 7.19446 6.13966 7.19446H8.38175C8.5121 7.19446 8.57728 7.22038 8.61638 7.33705C9.43761 9.06112 10.2719 10.7593 11.054 12.4963H11.0801C11.8361 10.7852 12.6704 9.06112 13.4655 7.36298C13.5307 7.25927 13.5698 7.19446 13.7002 7.19446H15.7989C15.9032 7.19446 15.9423 7.27224 15.8771 7.3889L12.4357 13.9611V13.9611Z" fill="#FF2BC2"/>
</svg>
